<svg xmlns="http://www.w3.org/2000/svg" width="12.765" height="12.29" viewBox="0 0 12.765 12.29">
  <path id="Path_45" data-name="Path 45" d="M353.254,161.5,348,151.459a1.126,1.126,0,0,0-1.993,0L340.746,161.5a1.125,1.125,0,0,0,1,1.647h10.516a1.125,1.125,0,0,0,1-1.647Zm-6.816-6.512a.562.562,0,1,1,1.124,0v3.375a.562.562,0,0,1-1.124,0Zm.574,6.474h.016a.83.83,0,0,0,.816-.862.859.859,0,0,0-.857-.825h-.016a.83.83,0,0,0-.815.86A.859.859,0,0,0,347.012,161.462Z" transform="translate(-340.617 -150.857)" fill="#ff3654" fill-rule="evenodd"/>
</svg>
