<svg id="Info" xmlns="http://www.w3.org/2000/svg" width="32" height="32" viewBox="0 0 32 32">
  <rect id="Rectangle_250" data-name="Rectangle 250" width="32" height="32" fill="#fff" opacity="0"/>
  <path id="info_FILL1_wght400_GRAD0_opsz48" d="M87.46-868h1.2v-4.8h-1.2Zm.54-6.28a.65.65,0,0,0,.47-.184.609.609,0,0,0,.19-.456.669.669,0,0,0-.19-.484.629.629,0,0,0-.47-.2.63.63,0,0,0-.47.2.668.668,0,0,0-.19.484.61.61,0,0,0,.19.456A.649.649,0,0,0,88-874.28ZM88.005-864a7.744,7.744,0,0,1-3.11-.63,8.129,8.129,0,0,1-2.545-1.72,8.124,8.124,0,0,1-1.72-2.547A7.758,7.758,0,0,1,80-872.01a7.759,7.759,0,0,1,.63-3.113,8.005,8.005,0,0,1,1.72-2.537,8.212,8.212,0,0,1,2.547-1.71A7.759,7.759,0,0,1,88.01-880a7.759,7.759,0,0,1,3.113.63,8.09,8.09,0,0,1,2.537,1.71,8.08,8.08,0,0,1,1.71,2.54,7.777,7.777,0,0,1,.63,3.115,7.744,7.744,0,0,1-.63,3.11,8.171,8.171,0,0,1-1.71,2.542,8.075,8.075,0,0,1-2.54,1.72A7.737,7.737,0,0,1,88.005-864Z" transform="translate(-72 888)" fill="#03658c"/>
</svg>
